<?xml version="1.0" standalone="no"?>
<!DOCTYPE svg PUBLIC "-//W3C//DTD SVG 20010904//EN"
 "http://www.w3.org/TR/2001/REC-SVG-20010904/DTD/svg10.dtd">
<svg version="1.0" xmlns="http://www.w3.org/2000/svg"
 width="256.000000pt" height="256.000000pt" viewBox="0 0 256.000000 256.000000"
 preserveAspectRatio="xMidYMid meet">
<metadata>
Created by potrace 1.11, written by Peter Selinger 2001-2013
</metadata>
<g transform="translate(0.000000,256.000000) scale(0.100000,-0.100000)"
fill="#000000" stroke="none">
<path d="M1165 2233 c-97 -22 -225 -94 -298 -168 -8 -7 -52 -31 -98 -54 -129
-62 -227 -137 -294 -225 -115 -153 -130 -333 -42 -500 35 -68 176 -215 225
-235 30 -12 30 -13 30 -94 0 -88 13 -161 38 -208 16 -32 40 -36 89 -15 28 12
32 10 86 -33 32 -25 86 -57 121 -70 34 -14 68 -30 73 -36 6 -7 10 -41 9 -76
-1 -59 -3 -64 -30 -79 -16 -9 -55 -24 -86 -33 -32 -10 -58 -23 -58 -29 0 -6 3
-9 6 -5 3 3 16 2 28 -3 16 -6 36 -2 65 11 24 10 45 19 47 19 2 0 -3 -18 -11
-39 -13 -38 -13 -39 10 -37 17 1 31 13 46 41 12 22 23 41 24 43 2 2 20 -4 40
-12 40 -17 75 -21 75 -8 0 4 -22 21 -50 37 l-49 29 2 64 2 65 112 1 111 2 -2
-67 c0 -37 -3 -69 -6 -72 -3 -2 -24 -14 -47 -27 -24 -13 -43 -27 -43 -32 0
-13 34 -9 73 7 20 8 38 15 40 15 2 0 12 -18 22 -40 10 -22 21 -41 24 -41 43
-9 49 -6 40 20 -6 14 -15 32 -22 40 -10 12 -8 13 13 6 14 -4 37 -14 51 -21 15
-7 28 -11 30 -9 3 2 16 5 31 7 15 2 29 6 32 9 2 2 -36 17 -85 34 -49 16 -89
34 -90 40 -4 39 -3 138 1 144 3 5 34 21 70 36 36 16 90 49 121 73 55 42 58 43
90 29 19 -7 47 -13 63 -13 45 1 69 71 70 206 l1 105 57 38 c181 121 277 319
245 507 -29 172 -179 337 -395 437 -42 20 -81 40 -87 47 -151 145 -347 209
-520 169z"/>
</g>
</svg>
